HIERARCHY
ROOT ui
{
	 OFFSET 0 0 0
	 CHANNELS 3 XPosition YPosition Z Position
	 EndSite
	 {
	 OFFSET 0 -1 0
	 }
}
ROOT li
{
	 OFFSET 0 0 0
	 CHANNELS 3 XPosition YPosition Z Position
	 EndSite
	 {
	 OFFSET 0 -1 0
	 }
}
ROOT ul
{
	 OFFSET 0 0 0
	 CHANNELS 3 XPosition YPosition Z Position
	 EndSite
	 {
	 OFFSET 0 -1 0
	 }
}
ROOT ll
{
	 OFFSET 0 0 0
	 CHANNELS 3 XPosition YPosition Z Position
	 EndSite
	 {
	 OFFSET 0 -1 0
	 }
}
ROOT tt
{
	 OFFSET 0 0 0
	 CHANNELS 3 XPosition YPosition Z Position
	 EndSite
	 {
	 OFFSET 0 -1 0
	 }
}
ROOT tb
{
	 OFFSET 0 0 0
	 CHANNELS 3 XPosition YPosition Z Position
	 EndSite
	 {
	 OFFSET 0 -1 0
	 }
}
ROOT td
{
	 OFFSET 0 0 0
	 CHANNELS 3 XPosition YPosition Z Position
	 EndSite
	 {
	 OFFSET 0 -1 0
	 }
}
ROOT v
{
	 OFFSET 0 0 0
	 CHANNELS 3 XPosition YPosition Z Position
	 EndSite
	 {
	 OFFSET 0 -1 0
	 }
}
ROOT bn
{
	 OFFSET 0 0 0
	 CHANNELS 3 XPosition YPosition Z Position
	 EndSite
	 {
	 OFFSET 0 -1 0
	 }
}
MOTION
Frames: 16
Frame Time: 0.002
-2.8126099705696106E-4	7.061259746551513E-4	0		0.4107612915039062	-2.410013427734375	0		-1.07627001953125	-0.045098529815673825	0		-0.796153564453125	-2.3944716796875	0		1.2798948974609374	-0.6732478637695313	0		2.840140869140625	-9.857550263404845E-4	0		4.3253662109375	0.27855267333984374	0		5.5413173828125	-0.015194581985473634	0		-0.05858597946166992	5.92368994140625	0		
-0.012938881874084473	0.00727354097366333	0		0.39943637084960937	-2.403406982421875	0		-1.0800821533203124	-0.04783765411376953	0		-0.7915007934570313	-2.389315185546875	0		1.282044677734375	-0.6827667846679687	0		2.783171630859375	-0.01124413013458252	0		4.3096884765625	0.28677035522460936	0		5.53155517578125	-0.013914148330688476	0		-0.07436219787597656	5.91328759765625	0		
-0.0028715360164642332	-0.0015601190328598023	0		0.4078049621582031	-2.414147705078125	0		-1.0428707275390625	-0.04929568481445312	0		-0.7889048461914062	-2.387118408203125	0		1.2774739990234374	-0.67615869140625	0		2.796293701171875	-0.016741144180297853	0		4.30964794921875	0.27471563720703124	0		5.52278662109375	-0.012642407417297363	0		-0.19315118408203125	5.9036943359375	0		
-0.00670429277420044	-0.004146503925323486	0		0.3824468688964844	-2.40829541015625	0		-1.0796221923828124	-0.047450489044189456	0		-0.7842886962890625	-2.382953369140625	0		1.2885748291015624	-0.6878291015625	0		2.7771689453125	-0.03567844772338867	0		4.31881005859375	0.2744955139160156	0		5.53267431640625	-0.03071034622192383	0		-0.19177967834472656	5.90197705078125	0		
6.067569851875305E-4	0.0020728559494018555	0		0.41500518798828123	-2.4064560546875	0		-1.0635142822265624	-0.053527931213378906	0		-0.7725748901367188	-2.37190771484375	0		1.168944091796875	-0.6822398681640625	0		2.81780810546875	-0.010661970138549805	0		4.3192236328125	0.2894109191894531	0		5.53218017578125	-0.012616413116455078	0		-0.044809207916259766	5.93274609375	0		
8.02603006362915E-4	0.002410815954208374	0		0.38959674072265627	-2.40061962890625	0		-1.0792059326171874	-0.047051315307617185	0		-0.7700433349609375	-2.369702392578125	0		1.2981219482421875	-0.6889677734375	0		2.76861767578125	-0.03212128448486328	0		4.3221591796875	0.2772479858398437	0		5.52341357421875	-0.009421387672424316	0		-0.19487722778320313	5.90464111328125	0		
-0.0020642340183258056	-2.0679299533367157E-4	0		0.43885623168945315	-2.413076171875	0		-1.0542073974609374	-0.05827436065673828	0		-0.7695758056640625	-2.3694638671875	0		1.1664248046875	-0.6852311401367187	0		2.776821533203125	-0.030596059799194338	0		4.31819140625	0.2711647644042969	0		5.52359912109375	-0.008430180549621582	0		-0.06202629852294922	5.92567724609375	0		
-0.0059423079490661624	-0.0028183650970458984	0		0.41235128784179687	-2.409249755859375	0		-1.0540286865234374	-0.05807106018066406	0		-0.7670897827148437	-2.36626318359375	0		1.2974171142578126	-0.700998291015625	0		2.78367431640625	-0.049082839965820316	0		4.3183330078125	0.2719651489257813	0		5.534482421875	-0.02467973518371582	0		-0.19490036010742187	5.90423046875	0		
-8.66346001625061E-4	-0.007595158100128173	0		0.410707763671875	-2.4118662109375	0		-1.09085693359375	-0.057248428344726564	0		-0.797531494140625	-2.356513671875	0		1.106861572265625	-0.6863438110351563	0		2.7730771484375	-0.03430789947509766	0		4.3105849609375	0.27984735107421876	0		5.52393310546875	-0.006624176025390625	0		-0.180159912109375	5.915263671875	0		
-0.0015813390016555786	7.122939825057983E-4	0		0.38925335693359375	-2.401169189453125	0		-1.090701416015625	-0.05705822372436523	0		-0.7531007690429687	-2.353033447265625	0		1.173016357421875	-0.690053466796875	0		2.771895751953125	-0.05373789596557617	0		4.3185908203125	0.2734081726074219	0		5.524083984375	-0.00581724500656128	0		-0.04821133041381836	5.9353251953125	0		
-0.0014397770166397095	9.87293004989624E-4	0		0.44450753784179686	-2.406776611328125	0		-1.05356005859375	-0.0574919548034668	0		-0.7486936645507812	-2.34888916015625	0		1.1732164306640624	-0.689678955078125	0		2.78902294921875	-0.054510963439941405	0		4.318708984375	0.2740492858886719	0		5.53322509765625	-0.005223948955535889	0		-0.061770782470703126	5.923814453125	0		
0.0036117229461669923	-0.003837626934051514	0		0.41379815673828124	-2.407970703125	0		-1.0204913940429687	-0.06186195755004883	0		-0.7483785400390625	-2.348689208984375	0		1.29313916015625	-0.7063196411132813	0		2.790962890625	-0.0660714111328125	0		4.32672265625	0.26850567626953126	0		5.5333603515625	-0.004542673110961914	0		-0.06307265090942382	5.92508349609375	0		
-0.005222774982452392	-0.00144999098777771	0		0.4042273254394531	-2.399539306640625	0		-1.0673167724609376	-0.058916778564453126	0		-0.7829995727539063	-2.342923828125	0		1.104377197265625	-0.7008710327148437	0		2.773100830078125	-0.06534421539306641	0		4.3197041015625	0.2611573486328125	0		5.52934375	-0.012857881546020508	0		-0.06334694290161133	5.925318359375	0		
-0.0010447260141372681	0.0017037509679794312	0		0.3864035339355469	-2.404997802734375	0		-1.0612672119140625	-0.06385832214355469	0		-0.730836181640625	-2.349605224609375	0		1.11634912109375	-0.7127805786132813	0		2.788902587890625	-0.08521882629394531	0		4.3078193359375	0.26183319091796875	0		5.53430810546875	-0.022388153076171875	0		-0.22904316711425782	5.89825390625	0		
0.008936054229736328	-0.007257565021514893	0		0.4197326354980469	-2.40031884765625	0		-1.05708544921875	-0.06077645492553711	0		-0.7854816284179688	-2.342539306640625	0		1.130578857421875	-0.7087527465820312	0		2.783349365234375	-0.06578028869628906	0		4.30793603515625	0.262252685546875	0		5.52475244140625	-0.0027451210021972655	0		-0.04759623336791992	5.93446923828125	0		
0.002266585111618042	0.00503901481628418	0		0.4199642639160156	-2.4001181640625	0		-1.0240198974609376	-0.06517613220214843	0		-0.7280145874023437	-2.328322998046875	0		1.1258397216796876	-0.7024419555664062	0		2.765012939453125	-0.09418412780761719	0		4.31107421875	0.2635638732910156	0		5.5297373046875	-0.011415280342102051	0		-0.196211181640625	5.9050771484375	0		
